<svg xmlns="http://www.w3.org/2000/svg" version="1.1" xmlns:xlink="http://www.w3.org/1999/xlink" width="512" height="512" x="0" y="0" viewBox="0 0 508.691 508.691" style="enable-background:new 0 0 512 512" xml:space="preserve" class=""><g><path fill="#ffffff" d="M501.191 371.356c0-91.707-63.339-192.535-63.339-192.535l48.301 4.897c-16.101-53.064-80.502-82.716-80.502-82.716 48.301 0 48.301-62.255 48.301-62.255l-1.604.403c-37.092 9.312-75.983 8.101-112.56-3.063-48.84-14.907-79.041-13.373-79.041-13.373-78.319 0-125.538 38.843-147.06 62.543-8.922 9.825-10.778 24.171-4.804 36.022l7.094 14.071 46.341 92.939c37.436 81.494-10.564 257.734-10.564 257.734 48.551 0 93.436-21.231 130.828-48.141l-5.828 39.703s72.756-19.367 101.398-89.076l10.602 51.139s49.292-39.857 47.073-94z" opacity="1" data-original="#ffffff" class=""></path><path fill="#c6d2db" d="M501.191 371.356c0-91.707-63.339-192.535-63.339-192.535l48.301 4.897c-16.101-53.064-80.502-82.716-80.502-82.716 48.301 0 48.301-62.255 48.301-62.255l-1.604.403a206.463 206.463 0 0 1-18.595 3.762v.004s-4.333 30.732-28.103 38.086l-43.897 12.146s75.333 42.5 88.721 66.85l-51.335-5.205 21.777 34.666c.526.84 47.027 75.822 57.981 151.637l-64.312-25.293 1.257 30.664c.784 19.132-6.851 36.5-15.63 49.935l-15.737-75.909-24.823 60.416c-13.25 32.247-37.97 52.253-57.862 63.822l7.438-50.665s-85.35 65.582-157.475 91.957c48.551 0 93.436-21.231 130.828-48.141l-5.828 39.703s72.756-19.367 101.398-89.076l10.602 51.139s49.292-39.857 47.073-94z" opacity="1" data-original="#c6d2db" class=""></path><path fill="#feef8f" d="M207.187 100.468c-9.55 5.916-17.729 12.129-28.512 17.361a22 22 0 0 0 .106 7.866c2.33 11.961 13.915 19.767 25.876 17.437s19.768-13.915 17.437-25.876c-1.592-8.173-7.506-14.403-14.907-16.788z" opacity="1" data-original="#feef8f" class=""></path><path fill="#f7bd83" d="M222.095 117.256c-1.592-8.172-7.506-14.403-14.908-16.788-3.486 2.16-6.79 4.359-10.104 6.535a21.94 21.94 0 0 1 5.012 10.253c1.928 9.897-3.088 19.531-11.652 23.883a21.962 21.962 0 0 0 14.215 1.993c11.96-2.33 19.767-13.916 17.437-25.876z" opacity="1" data-original="#f7bd83" class=""></path><path fill="#feef8f" d="M113.049 129.55s-23.143 31.306-79.451 44.867c-20.797 5.009-34.751 38.752-19.95 57.536l32.428 45.081c12.679-41.052 72.679-36.323 72.679-36.323 103.752 10.604 120.526-40.959 120.526-40.959l-81.805-29.024a86.028 86.028 0 0 1-44.427-41.178z" opacity="1" data-original="#feef8f" class=""></path><path fill="#f7bd83" d="m140.475 184.728 86.131 32.611c9.961-9.268 12.674-17.587 12.674-17.587l-81.805-29.024a86.03 86.03 0 0 1-44.426-41.178s-5.061 6.842-16.2 15.514a86.013 86.013 0 0 0 43.626 39.664z" opacity="1" data-original="#f7bd83" class=""></path><path fill="#f7bd83" d="M123.386 215.032c-30.632-4.32-46.868 3.398-60.184 16.188-10.275 9.87-15.122 22.92-17.127 45.814 12.679-41.052 72.679-36.323 72.679-36.323 103.752 10.604 120.526-40.959 120.526-40.959s-21.505 28.591-115.894 15.28z" opacity="1" data-original="#f7bd83" class=""></path><path d="m260.748 30.215.38-.01c.294-.012 29.432-1.301 76.472 13.056 35.307 10.776 72.479 12.514 108.05 5.119-.725 5.242-2.104 12.022-4.727 18.783-6.876 17.724-18.413 26.34-35.271 26.34h-34.223l31.086 14.312c.566.261 52.608 24.644 72.308 67.216l-51.478-5.218 8.156 12.997c.129.205 13.043 20.88 26.936 51.394l13.652-6.216c-7.746-17.012-15.102-30.902-20.313-40.216l44.825 4.545-3.27-10.775c-11.471-37.804-45.101-63.972-66.354-77.264 12.416-5.463 21.904-16.155 27.93-31.689 6.472-16.681 6.546-33.147 6.546-33.84v-9.617l-10.93 2.746c-35.481 8.908-73.016 7.882-108.545-2.962-47.953-14.636-78.346-13.824-81.399-13.7-32.031.022-62.059 6.374-89.25 18.879l6.268 13.628c25.259-11.618 53.235-17.508 83.151-17.508z" fill="#000000" opacity="1" data-original="#000000" class=""></path><path d="m478.229 241.996-13.822 5.825c17.188 40.785 27.107 79.361 28.964 112.4l-65.509-25.764.471 11.499c1.454 35.458-21.551 64.912-34.971 78.975l-12.838-61.927-9.31 22.656c-20.256 49.298-64.489 72.323-85.236 80.724l6.596-44.932-14.373 10.344c-39.675 28.552-78.891 44.144-116.723 46.433 3.679-14.996 10.697-45.736 15.902-81.49 8.094-55.584 8.919-101.179 2.497-135.993 11.522 10.016 26.655 24.732 37.98 41.389l12.404-8.434c-13.819-20.326-32.416-37.598-44.951-48.074 49.838-11.161 60.537-41.817 61.102-43.554l2.259-6.946-88.521-31.407a78.495 78.495 0 0 1-40.323-37.39h.001l-.537-1.065-4.053-8.108c-4.129-8.924-2.577-19.614 4-26.857 8.922-9.825 24.061-24.055 45.517-36.049l-7.319-13.093c-23.223 12.982-39.628 28.406-49.302 39.058-10.905 12.009-13.295 29.868-5.949 44.44l1.917 3.802c-7.509 8.041-29.996 28.488-72.261 38.667-12.66 3.05-23.773 14.317-29.001 29.405-5.075 14.646-3.275 29.557 4.809 39.928l41.142 57.196 4.45-14.407c10.578-34.248 62.771-31.201 64.863-31.063 9.903 1.008 19.06 1.468 27.527 1.468 5.708 0 11.091-.216 16.187-.605 23.275 83.885-16.883 233.471-17.301 235.007l-2.577 9.47h9.814c39.436 0 80.046-13.377 120.921-39.795l-4.996 34.035 11.004-2.929c.786-.209 19.53-5.291 41.993-19.278 23.045-14.35 41.582-32.93 54.499-54.458l8.73 42.116 9.563-7.732c1.99-1.609 45.731-37.572 49.651-88.904l65.57 25.788v-11.009c.002-37.878-10.247-81.402-30.46-129.362zm-458.69-14.684c-4.997-6.342-5.941-16.013-2.525-25.87 3.517-10.151 10.716-17.896 18.34-19.733 40.915-9.854 65.144-28.7 76.303-39.534a93.494 93.494 0 0 0 42.983 35.497l68.281 24.234c-13.602 6.299-42.536 13.591-98.487 5.7-29.012-4.09-48.882 1.353-66.427 18.206-8.321 7.992-13.564 17.781-16.667 31.796l-21.604-30.033zm99.978 5.939-.173-.016c-.66-.053-16.38-1.227-33.912 2.947-9.325 2.22-17.431 5.543-24.229 9.882a38.233 38.233 0 0 1 7.194-9.436c10.268-9.863 23.908-18.408 53.941-14.17 18.257 2.575 33.917 3.631 47.34 3.63 14.157-.001 25.813-1.178 35.373-2.988-16.825 8.326-43.555 14.442-85.534 10.151z" fill="#000000" opacity="1" data-original="#000000" class=""></path><path d="M250.556 75.754c-27.9 5.436-42.212 14.858-56.053 23.97-12.275 8.081-23.87 15.714-45.428 19.914l2.869 14.724c7.587-1.478 14.107-3.346 19.881-5.474 3.397 13.15 15.33 22.156 28.603 22.155 1.868 0 3.764-.179 5.665-.549 7.751-1.51 14.45-5.948 18.863-12.497s6.012-14.424 4.501-22.175a29.53 29.53 0 0 0-7.8-14.908c8.312-4.159 18.191-7.792 31.767-10.436zm-35.823 42.936c.744 3.818-.044 7.698-2.218 10.924s-5.474 5.412-9.292 6.156c-7.879 1.532-15.544-3.627-17.081-11.51a14.761 14.761 0 0 1-.217-1.706c6.165-3.285 11.533-6.817 16.825-10.302a594.967 594.967 0 0 1 5.077-3.317 14.566 14.566 0 0 1 6.906 9.755zM238.476 307.348l-13.299 6.938c2.261 4.334 4.097 8.614 5.458 12.722l14.239-4.717c-1.614-4.87-3.766-9.897-6.398-14.943zM203.451 335.89c.167.167 16.771 17.002 23.778 43.961l14.518-3.773c-8.022-30.865-26.89-49.995-27.689-50.794z" fill="#000000" opacity="1" data-original="#000000" class=""></path></g></svg>