<svg xmlns="http://www.w3.org/2000/svg" version="1.1" xmlns:xlink="http://www.w3.org/1999/xlink" width="512" height="512" x="0" y="0" viewBox="0 0 45.809 45.809" style="enable-background:new 0 0 512 512" xml:space="preserve"><g><path d="M27.574 27.971c10.073 1.488 15.464-6.11 16.846-8.406a.282.282 0 0 0-.306-.419c-1.394.325-3.012-.021-3.012-.021 4.088-3.139 4.659-9.146 4.706-11.747a.689.689 0 0 0-1.018-.615c-3.603 1.975-11.626 3.868-21.868 7.975-5.001 2.006-7.154 5.347-8.054 8.205-1.4.19-2.811.143-3.938-.518-.8-.469-1.653-1.173-2.685-1.373-3.268-.634-5.627.728-8.14 4.218a.567.567 0 0 0 .35.883c7.962 1.558 8.744 5.398 11.409 7.541 8.93 7.175 22.651 6.558 31.319 2.147a.555.555 0 0 0-.201-1.049c-5.833-.543-11.234-1.853-15.408-6.821zM5.939 23.725a.694.694 0 1 1-1.384-.132.694.694 0 0 1 1.384.132z" fill="#ffffff" opacity="1" data-original="#000000"></path></g></svg>